<?xml version="1.0" encoding="UTF-8" standalone="no"?>
<!DOCTYPE svg PUBLIC "-//W3C//DTD SVG 1.0//EN" "http://www.w3.org/TR/2001/PR-SVG-20010719/DTD/svg10.dtd">
<svg width="28cm" height="18cm" viewBox="679 259 542 342" xmlns="http://www.w3.org/2000/svg" xmlns:xlink="http://www.w3.org/1999/xlink">
  <g>
    <rect style="fill: #ffffff" x="920" y="260" width="300" height="160"/>
    <rect style="fill: none; fill-opacity:0; stroke-width: 2; stroke: #000000" x="920" y="260" width="300" height="160"/>
    <text font-size="12.7998" style="fill: #000000;text-anchor:middle;font-family:sans-serif;font-style:normal;font-weight:normal" x="1070" y="343.9">
      <tspan x="1070" y="343.9">Openlogibri-lib</tspan>
    </text>
  </g>
  <g>
    <rect style="fill: #ffffff" x="920" y="480" width="300" height="120"/>
    <rect style="fill: none; fill-opacity:0; stroke-width: 2; stroke: #000000" x="920" y="480" width="300" height="120"/>
    <text font-size="12.7998" style="fill: #000000;text-anchor:middle;font-family:sans-serif;font-style:normal;font-weight:normal" x="1070" y="543.9">
      <tspan x="1070" y="543.9">Openlogibri-runner</tspan>
    </text>
  </g>
  <g>
    <line style="fill: none; fill-opacity:0; stroke-width: 2; stroke: #000000" x1="1070" y1="430.718" x2="1070" y2="469.265"/>
    <polygon style="fill: #000000" points="1070,423.218 1075,433.218 1070,430.718 1065,433.218 "/>
    <polygon style="fill: none; fill-opacity:0; stroke-width: 2; stroke: #000000" points="1070,423.218 1075,433.218 1070,430.718 1065,433.218 "/>
    <polygon style="fill: #000000" points="1070,476.765 1065,466.765 1070,469.265 1075,466.765 "/>
    <polygon style="fill: none; fill-opacity:0; stroke-width: 2; stroke: #000000" points="1070,476.765 1065,466.765 1070,469.265 1075,466.765 "/>
  </g>
  <g>
    <rect style="fill: #ffffff" x="680" y="480" width="158.6" height="118"/>
    <rect style="fill: none; fill-opacity:0; stroke-width: 2; stroke: #000000" x="680" y="480" width="158.6" height="118"/>
    <text font-size="12.7998" style="fill: #000000;text-anchor:middle;font-family:sans-serif;font-style:normal;font-weight:normal" x="759.3" y="542.9">
      <tspan x="759.3" y="542.9">Openlogibri-editor</tspan>
    </text>
  </g>
  <g>
    <rect style="fill: #ffffff" x="680" y="260" width="160" height="160"/>
    <rect style="fill: none; fill-opacity:0; stroke-width: 2; stroke: #000000" x="680" y="260" width="160" height="160"/>
    <text font-size="12.7998" style="fill: #000000;text-anchor:middle;font-family:sans-serif;font-style:normal;font-weight:normal" x="760" y="343.9">
      <tspan x="760" y="343.9">Openlogibri-editor</tspan>
    </text>
  </g>
  <g>
    <line style="fill: none; fill-opacity:0; stroke-width: 2; stroke: #000000" x1="759.545" y1="469.287" x2="759.681" y2="430.738"/>
    <polygon style="fill: #000000" points="759.519,476.787 754.554,466.769 759.545,469.287 764.554,466.805 "/>
    <polygon style="fill: none; fill-opacity:0; stroke-width: 2; stroke: #000000" points="759.519,476.787 754.554,466.769 759.545,469.287 764.554,466.805 "/>
    <polygon style="fill: #000000" points="759.707,423.238 764.672,433.255 759.681,430.738 754.672,433.22 "/>
    <polygon style="fill: none; fill-opacity:0; stroke-width: 2; stroke: #000000" points="759.707,423.238 764.672,433.255 759.681,430.738 754.672,433.22 "/>
  </g>
  <g>
    <line style="fill: none; fill-opacity:0; stroke-width: 2; stroke: #000000" x1="909.266" y1="539.483" x2="849.337" y2="539.29"/>
    <polygon style="fill: #000000" points="916.766,539.507 906.75,544.475 909.266,539.483 906.782,534.475 "/>
    <polygon style="fill: none; fill-opacity:0; stroke-width: 2; stroke: #000000" points="916.766,539.507 906.75,544.475 909.266,539.483 906.782,534.475 "/>
    <polygon style="fill: #000000" points="841.838,539.266 851.854,534.298 849.337,539.29 851.821,544.298 "/>
    <polygon style="fill: none; fill-opacity:0; stroke-width: 2; stroke: #000000" points="841.838,539.266 851.854,534.298 849.337,539.29 851.821,544.298 "/>
  </g>
</svg>
