<?xml version="1.0" encoding="UTF-8" standalone="no"?>
<!DOCTYPE svg PUBLIC "-//W3C//DTD SVG 1.0//EN" "http://www.w3.org/TR/2001/PR-SVG-20010719/DTD/svg10.dtd">
<svg width="50cm" height="23cm" viewBox="239 698 983 459" xmlns="http://www.w3.org/2000/svg" xmlns:xlink="http://www.w3.org/1999/xlink">
  <g>
    <rect style="fill: none; fill-opacity:0; stroke-width: 2; stroke: #000000" x="340" y="700" width="880" height="360"/>
    <text font-size="12.8" style="fill: #000000;text-anchor:middle;font-family:sans-serif;font-style:normal;font-weight:normal" x="780" y="883.9">
      <tspan x="780" y="883.9"></tspan>
    </text>
  </g>
  <g>
    <rect style="fill: #ffffff" x="620" y="840" width="41" height="40"/>
    <rect style="fill: none; fill-opacity:0; stroke-width: 2; stroke: #000000" x="620" y="840" width="41" height="40"/>
    <text font-size="12.8" style="fill: #000000;text-anchor:middle;font-family:sans-serif;font-style:normal;font-weight:normal" x="640.5" y="863.9">
      <tspan x="640.5" y="863.9">A</tspan>
    </text>
  </g>
  <g>
    <rect style="fill: #ffffff" x="620" y="880" width="41" height="40"/>
    <rect style="fill: none; fill-opacity:0; stroke-width: 2; stroke: #000000" x="620" y="880" width="41" height="40"/>
    <text font-size="12.8" style="fill: #000000;text-anchor:middle;font-family:sans-serif;font-style:normal;font-weight:normal" x="640.5" y="903.9">
      <tspan x="640.5" y="903.9">B</tspan>
    </text>
  </g>
  <g>
    <rect style="fill: #ffffff" x="660" y="840" width="100" height="80"/>
    <rect style="fill: none; fill-opacity:0; stroke-width: 2; stroke: #000000" x="660" y="840" width="100" height="80"/>
    <text font-size="12.8" style="fill: #000000;text-anchor:middle;font-family:sans-serif;font-style:normal;font-weight:normal" x="710" y="883.9">
      <tspan x="710" y="883.9">+</tspan>
    </text>
  </g>
  <g>
    <rect style="fill: #ffffff" x="760" y="840" width="41" height="80"/>
    <rect style="fill: none; fill-opacity:0; stroke-width: 2; stroke: #000000" x="760" y="840" width="41" height="80"/>
    <text font-size="12.8" style="fill: #000000;text-anchor:middle;font-family:sans-serif;font-style:normal;font-weight:normal" x="780.5" y="883.9">
      <tspan x="780.5" y="883.9">C</tspan>
    </text>
  </g>
  <g>
    <rect style="fill: #ffffff" x="980" y="860" width="41" height="40"/>
    <rect style="fill: none; fill-opacity:0; stroke-width: 2; stroke: #000000" x="980" y="860" width="41" height="40"/>
    <text font-size="12.8" style="fill: #000000;text-anchor:middle;font-family:sans-serif;font-style:normal;font-weight:normal" x="1000.5" y="883.9">
      <tspan x="1000.5" y="883.9">A</tspan>
    </text>
  </g>
  <g>
    <rect style="fill: #ffffff" x="1020" y="860" width="100" height="40"/>
    <rect style="fill: none; fill-opacity:0; stroke-width: 2; stroke: #000000" x="1020" y="860" width="100" height="40"/>
    <text font-size="12.8" style="fill: #000000;text-anchor:middle;font-family:sans-serif;font-style:normal;font-weight:normal" x="1070" y="883.9">
      <tspan x="1070" y="883.9">-1</tspan>
    </text>
  </g>
  <g>
    <rect style="fill: #ffffff" x="1120" y="860" width="41" height="40"/>
    <rect style="fill: none; fill-opacity:0; stroke-width: 2; stroke: #000000" x="1120" y="860" width="41" height="40"/>
    <text font-size="12.8" style="fill: #000000;text-anchor:middle;font-family:sans-serif;font-style:normal;font-weight:normal" x="1140.5" y="883.9">
      <tspan x="1140.5" y="883.9">B</tspan>
    </text>
  </g>
  <g>
    <line style="fill: none; fill-opacity:0; stroke-width: 2; stroke: #000000" x1="801.998" y1="880" x2="969.266" y2="880"/>
    <polygon style="fill: #000000" points="976.766,880 966.766,885 969.266,880 966.766,875 "/>
    <polygon style="fill: none; fill-opacity:0; stroke-width: 2; stroke: #000000" points="976.766,880 966.766,885 969.266,880 966.766,875 "/>
  </g>
  <text font-size="12.7998" style="fill: #000000;text-anchor:start;font-family:sans-serif;font-style:normal;font-weight:normal" x="397" y="884">
    <tspan x="397" y="884">IOLogibriInterface</tspan>
  </text>
  <g>
    <line style="fill: none; fill-opacity:0; stroke-width: 2; stroke-dasharray: 20; stroke: #000000" x1="520" y1="880" x2="609.405" y2="865.161"/>
    <polygon style="fill: #000000" points="616.804,863.933 607.757,870.503 609.405,865.161 606.12,860.638 "/>
    <polygon style="fill: none; fill-opacity:0; stroke-width: 2; stroke: #000000" points="616.804,863.933 607.757,870.503 609.405,865.161 606.12,860.638 "/>
  </g>
  <g>
    <line style="fill: none; fill-opacity:0; stroke-width: 2; stroke-dasharray: 20; stroke: #000000" x1="520" y1="880" x2="609.405" y2="894.839"/>
    <polygon style="fill: #000000" points="616.804,896.067 606.12,899.362 609.405,894.839 607.757,889.497 "/>
    <polygon style="fill: none; fill-opacity:0; stroke-width: 2; stroke: #000000" points="616.804,896.067 606.12,899.362 609.405,894.839 607.757,889.497 "/>
  </g>
  <text font-size="12.7998" style="fill: #000000;text-anchor:start;font-family:sans-serif;font-style:normal;font-weight:normal" x="720" y="775">
    <tspan x="720" y="775">IOLogibriInterface</tspan>
  </text>
  <g>
    <line style="fill: none; fill-opacity:0; stroke-width: 2; stroke-dasharray: 20; stroke: #000000" x1="780" y1="780" x2="780.247" y2="829.444"/>
    <polygon style="fill: #000000" points="780.285,836.944 775.235,826.969 780.247,829.444 785.235,826.919 "/>
    <polygon style="fill: none; fill-opacity:0; stroke-width: 2; stroke: #000000" points="780.285,836.944 775.235,826.969 780.247,829.444 785.235,826.919 "/>
  </g>
  <text font-size="12.7998" style="fill: #000000;text-anchor:start;font-family:sans-serif;font-style:normal;font-weight:normal" x="855" y="960">
    <tspan x="855" y="960">DataLink</tspan>
  </text>
  <g>
    <line style="fill: none; fill-opacity:0; stroke-width: 2; stroke-dasharray: 20; stroke: #000000" x1="880" y1="940" x2="880.277" y2="888.837"/>
    <polygon style="fill: #000000" points="880.317,881.338 885.263,891.365 880.277,888.837 875.263,891.31 "/>
    <polygon style="fill: none; fill-opacity:0; stroke-width: 2; stroke: #000000" points="880.317,881.338 885.263,891.365 880.277,888.837 875.263,891.31 "/>
  </g>
  <g>
    <rect style="fill: none; fill-opacity:0; stroke-width: 2; stroke-dasharray: 20; stroke: #000000" x="600" y="820" width="220" height="120"/>
    <text font-size="12.8" style="fill: #000000;text-anchor:middle;font-family:sans-serif;font-style:normal;font-weight:normal" x="710" y="883.9">
      <tspan x="710" y="883.9"></tspan>
    </text>
  </g>
  <text font-size="12.7998" style="fill: #000000;text-anchor:start;font-family:sans-serif;font-style:normal;font-weight:normal" x="691" y="1016">
    <tspan x="691" y="1016">Logibri</tspan>
  </text>
  <g>
    <line style="fill: none; fill-opacity:0; stroke-width: 2; stroke-dasharray: 20; stroke: #000000" x1="712" y1="1000" x2="711.179" y2="950.738"/>
    <polygon style="fill: #000000" points="711.054,943.239 716.22,953.154 711.179,950.738 706.221,953.321 "/>
    <polygon style="fill: none; fill-opacity:0; stroke-width: 2; stroke: #000000" points="711.054,943.239 716.22,953.154 711.179,950.738 706.221,953.321 "/>
  </g>
  <text font-size="12.7998" style="fill: #000000;text-anchor:start;font-family:sans-serif;font-style:normal;font-weight:normal" x="722" y="1154">
    <tspan x="722" y="1154">LogibriContainer</tspan>
  </text>
  <g>
    <line style="fill: none; fill-opacity:0; stroke-width: 2; stroke: #000000" x1="780" y1="1140" x2="780" y2="1070.72"/>
    <polygon style="fill: #000000" points="780,1063.22 785,1073.22 780,1070.72 775,1073.22 "/>
    <polygon style="fill: none; fill-opacity:0; stroke-width: 2; stroke: #000000" points="780,1063.22 785,1073.22 780,1070.72 775,1073.22 "/>
  </g>
  <g>
    <rect style="fill: #ffffff" x="340" y="700" width="880" height="40"/>
    <rect style="fill: none; fill-opacity:0; stroke-width: 2; stroke: #000000" x="340" y="700" width="880" height="40"/>
    <text font-size="12.8" style="fill: #000000;text-anchor:middle;font-family:sans-serif;font-style:normal;font-weight:normal" x="780" y="723.9">
      <tspan x="780" y="723.9">Repeat container</tspan>
    </text>
  </g>
  <g>
    <rect style="fill: #ffffff" x="340" y="740" width="80" height="38"/>
    <rect style="fill: none; fill-opacity:0; stroke-width: 2; stroke: #000000" x="340" y="740" width="80" height="38"/>
    <text font-size="12.8" style="fill: #000000;text-anchor:middle;font-family:sans-serif;font-style:normal;font-weight:normal" x="380" y="762.9">
      <tspan x="380" y="762.9">Times</tspan>
    </text>
  </g>
  <g>
    <rect style="fill: #ffffff" x="240" y="740" width="40" height="40"/>
    <rect style="fill: none; fill-opacity:0; stroke-width: 2; stroke: #000000" x="240" y="740" width="40" height="40"/>
    <text font-size="12.8" style="fill: #000000;text-anchor:middle;font-family:sans-serif;font-style:normal;font-weight:normal" x="260" y="763.9">
      <tspan x="260" y="763.9">2</tspan>
    </text>
  </g>
  <g>
    <line style="fill: none; fill-opacity:0; stroke-width: 2; stroke: #000000" x1="280.991" y1="759.825" x2="329.366" y2="759.422"/>
    <polygon style="fill: #000000" points="336.866,759.359 326.908,764.443 329.366,759.422 326.824,754.443 "/>
    <polygon style="fill: none; fill-opacity:0; stroke-width: 2; stroke: #000000" points="336.866,759.359 326.908,764.443 329.366,759.422 326.824,754.443 "/>
  </g>
</svg>
